<svg xmlns="http://www.w3.org/2000/svg" viewBox="0 0 182 180.5"><title>Iconset_instagram_Landingpage</title><path d="M998.63,463.75a39.08,39.08,0,0,1,39,39v74.44a39.08,39.08,0,0,1-39,39H922.7a39.08,39.08,0,0,1-39-39V502.78a39.08,39.08,0,0,1,39-39h75.93m0-14H922.7a53.18,53.18,0,0,0-53,53v74.44a53.18,53.18,0,0,0,53,53h75.93a53.19,53.19,0,0,0,53-53V502.78a53.19,53.19,0,0,0-53-53Z" transform="translate(-869.67 -449.75)"/><path d="M960.17,507.75a32.5,32.5,0,1,1-32.5,32.5,32.54,32.54,0,0,1,32.5-32.5m0-14a46.5,46.5,0,1,0,46.5,46.5,46.5,46.5,0,0,0-46.5-46.5Z" transform="translate(-869.67 -449.75)"/><path d="M1010.17,480.75a10.5,10.5,0,1,0,10.5,10.5,10.5,10.5,0,0,0-10.5-10.5Z" transform="translate(-869.67 -449.75)"/></svg>