<svg xmlns="http://www.w3.org/2000/svg" viewBox="0 0 182 180.5"><defs><style>.a{fill-opacity:0.9;}</style></defs><title>Iconset_email_Landingpage</title><path d="M998,463.75a39.08,39.08,0,0,1,39,39v74.44a39.08,39.08,0,0,1-39,39H922a39.08,39.08,0,0,1-39-39V502.78a39.08,39.08,0,0,1,39-39H998m0-14H922a53.18,53.18,0,0,0-53,53v74.44a53.18,53.18,0,0,0,53,53H998a53.18,53.18,0,0,0,53-53V502.78a53.18,53.18,0,0,0-53-53Z" transform="translate(-869 -449.75)"/><path class="a" d="M960,481a59,59,0,0,0,0,118h29.5V587.2H960c-25.61,0-47.2-21.59-47.2-47.2s21.59-47.2,47.2-47.2,47.2,21.59,47.2,47.2v8.44c0,4.66-4.19,9.26-8.85,9.26s-8.85-4.6-8.85-9.26V540a29.5,29.5,0,1,0-8.61,20.83,21.84,21.84,0,0,0,17.46,8.67A20.73,20.73,0,0,0,1019,548.44V540A59,59,0,0,0,960,481Zm0,76.7A17.7,17.7,0,1,1,977.7,540,17.68,17.68,0,0,1,960,557.7Z" transform="translate(-869 -449.75)"/></svg>