<svg xmlns="http://www.w3.org/2000/svg" viewBox="0 0 182 180.5"><defs><style>.a{fill:none;}</style></defs><title>Iconset_phone</title><path d="M998,463.75a39.08,39.08,0,0,1,39,39v74.44a39.08,39.08,0,0,1-39,39H922a39.08,39.08,0,0,1-39-39V502.78a39.08,39.08,0,0,1,39-39H998m0-14H922a53.18,53.18,0,0,0-53,53v74.44a53.18,53.18,0,0,0,53,53H998a53.18,53.18,0,0,0,53-53V502.78a53.18,53.18,0,0,0-53-53Z" transform="translate(-869 -449.75)"/><path d="M981.12,481.31H938.44a13.34,13.34,0,0,0-13.34,13.34v90.7a13.34,13.34,0,0,0,13.34,13.34h42.68a13.35,13.35,0,0,0,13.34-13.34v-90.7A13.35,13.35,0,0,0,981.12,481.31Zm-21.34,112a8,8,0,1,1,8-8A8,8,0,0,1,959.78,593.35Zm24-21.34h-48V497.32h48Z" transform="translate(-869 -449.75)"/><path class="a" d="M892.28,472.5h135v135h-135Z" transform="translate(-869 -449.75)"/></svg>