<svg xmlns="http://www.w3.org/2000/svg" viewBox="0 0 182 188.19"><defs><style>.a{font-size:152px;font-family:'Roboto',sans-serif;font-weight:700;text-align:left;}</style></defs><title>Iconset_LinkedIn_Landingpage</title><path d="M973.3,456.75a39.08,39.08,0,0,1,39,39v74.44a39.08,39.08,0,0,1-39,39H897.37a39.08,39.08,0,0,1-39-39V495.78a39.08,39.08,0,0,1,39-39H973.3m0-14H897.37a53.19,53.19,0,0,0-53,53v74.44a53.19,53.19,0,0,0,53,53H973.3a53.18,53.18,0,0,0,53-53V495.78a53.18,53.18,0,0,0-53-53Z" transform="translate(-844.33 -442.75)"/><text class="a" transform="translate(30 147)">in</text></svg>